<mxfile host="Electron" modified="2023-06-19T12:46:57.910Z" agent="Mozilla/5.0 (X11; Linux x86_64) AppleWebKit/537.36 (KHTML, like Gecko) draw.io/21.2.1 Chrome/112.0.5615.87 Electron/24.1.2 Safari/537.36" etag="onw5t7jkqOQrzYPyTtR0" version="21.2.1" type="device">
  <diagram name="Seite-1" id="V5NU5Y46Tua4g4NHYdA3">
    <mxGraphModel dx="819" dy="573" grid="1" gridSize="10" guides="1" tooltips="1" connect="1" arrows="1" fold="1" page="1" pageScale="1" pageWidth="827" pageHeight="1169" math="0" shadow="0">
      <root>
        <mxCell id="0" />
        <mxCell id="1" parent="0" />
        <mxCell id="1f9rcjdDRATZ6msuM8hE-18" value="Digitalsignal" style="text;html=1;strokeColor=none;fillColor=default;align=center;verticalAlign=middle;whiteSpace=wrap;rounded=0;opacity=0;fontSize=16;" parent="1" vertex="1">
          <mxGeometry x="187" y="400" width="111" height="35" as="geometry" />
        </mxCell>
        <mxCell id="Z_Z999ksr62_ZLidgFL4-16" value="" style="edgeStyle=orthogonalEdgeStyle;rounded=0;orthogonalLoop=1;jettySize=auto;html=1;" edge="1" parent="1" source="1f9rcjdDRATZ6msuM8hE-1" target="1f9rcjdDRATZ6msuM8hE-2">
          <mxGeometry relative="1" as="geometry" />
        </mxCell>
        <mxCell id="1f9rcjdDRATZ6msuM8hE-1" value="&lt;font style=&quot;font-size: 16px;&quot;&gt;Spannungsteiler&lt;/font&gt;" style="rounded=0;whiteSpace=wrap;html=1;fontSize=16;fillColor=#f5f5f5;fontColor=#333333;strokeColor=#666666;" parent="1" vertex="1">
          <mxGeometry x="120" y="280" width="120" height="40" as="geometry" />
        </mxCell>
        <mxCell id="Z_Z999ksr62_ZLidgFL4-17" value="" style="edgeStyle=orthogonalEdgeStyle;rounded=0;orthogonalLoop=1;jettySize=auto;html=1;" edge="1" parent="1" source="1f9rcjdDRATZ6msuM8hE-2" target="1f9rcjdDRATZ6msuM8hE-3">
          <mxGeometry relative="1" as="geometry" />
        </mxCell>
        <mxCell id="1f9rcjdDRATZ6msuM8hE-2" value="&lt;font style=&quot;font-size: 16px;&quot;&gt;A/D-Wandler&lt;/font&gt;" style="rounded=0;whiteSpace=wrap;html=1;fontSize=16;fillColor=#fff2cc;strokeColor=#d6b656;" parent="1" vertex="1">
          <mxGeometry x="120" y="360" width="120" height="40" as="geometry" />
        </mxCell>
        <mxCell id="1f9rcjdDRATZ6msuM8hE-3" value="&lt;font style=&quot;font-size: 16px;&quot;&gt;Controller&lt;/font&gt;" style="rounded=0;whiteSpace=wrap;html=1;fontSize=16;fillColor=#f8cecc;strokeColor=#b85450;" parent="1" vertex="1">
          <mxGeometry x="120" y="440" width="120" height="40" as="geometry" />
        </mxCell>
        <mxCell id="1f9rcjdDRATZ6msuM8hE-12" value="Eingangsspannung" style="text;html=1;strokeColor=none;fillColor=none;align=center;verticalAlign=middle;whiteSpace=wrap;rounded=0;fontSize=16;" parent="1" vertex="1">
          <mxGeometry x="120" y="221" width="120" height="30" as="geometry" />
        </mxCell>
        <mxCell id="Z_Z999ksr62_ZLidgFL4-6" style="edgeStyle=orthogonalEdgeStyle;rounded=0;orthogonalLoop=1;jettySize=auto;html=1;exitX=0.5;exitY=1;exitDx=0;exitDy=0;entryX=0.75;entryY=0;entryDx=0;entryDy=0;endArrow=none;endFill=0;" edge="1" parent="1" source="1f9rcjdDRATZ6msuM8hE-23" target="1f9rcjdDRATZ6msuM8hE-1">
          <mxGeometry relative="1" as="geometry" />
        </mxCell>
        <mxCell id="1f9rcjdDRATZ6msuM8hE-23" value="&lt;font style=&quot;font-size: 16px;&quot;&gt;-&lt;/font&gt;" style="text;html=1;strokeColor=none;fillColor=none;align=center;verticalAlign=middle;whiteSpace=wrap;rounded=0;fontSize=16;" parent="1" vertex="1">
          <mxGeometry x="190" y="245" width="20" height="20" as="geometry" />
        </mxCell>
        <mxCell id="Z_Z999ksr62_ZLidgFL4-5" style="edgeStyle=orthogonalEdgeStyle;rounded=0;orthogonalLoop=1;jettySize=auto;html=1;exitX=0.5;exitY=1;exitDx=0;exitDy=0;entryX=0.25;entryY=0;entryDx=0;entryDy=0;endArrow=none;endFill=0;" edge="1" parent="1" source="1f9rcjdDRATZ6msuM8hE-25" target="1f9rcjdDRATZ6msuM8hE-1">
          <mxGeometry relative="1" as="geometry" />
        </mxCell>
        <mxCell id="1f9rcjdDRATZ6msuM8hE-25" value="+" style="text;html=1;strokeColor=none;fillColor=none;align=center;verticalAlign=middle;whiteSpace=wrap;rounded=0;fontSize=16;" parent="1" vertex="1">
          <mxGeometry x="150" y="245" width="20" height="20" as="geometry" />
        </mxCell>
        <mxCell id="1f9rcjdDRATZ6msuM8hE-13" value="0-5 V" style="text;html=1;strokeColor=none;fillColor=none;align=center;verticalAlign=middle;whiteSpace=wrap;rounded=0;fontSize=16;" parent="1" vertex="1">
          <mxGeometry x="190" y="330" width="60" height="20" as="geometry" />
        </mxCell>
      </root>
    </mxGraphModel>
  </diagram>
</mxfile>
